<?xml version="1.0" encoding="UTF-8" standalone="no"?>
<!-- Created with Inkscape (http://www.inkscape.org/) -->

<svg
   width="96"
   height="96"
   viewBox="0 0 25.4 25.4"
   version="1.1"
   id="svg5"
   inkscape:version="1.2 (dc2aedaf03, 2022-05-15)"
   sodipodi:docname="js.svg"
   xmlns:inkscape="http://www.inkscape.org/namespaces/inkscape"
   xmlns:sodipodi="http://sodipodi.sourceforge.net/DTD/sodipodi-0.dtd"
   xmlns="http://www.w3.org/2000/svg"
   xmlns:svg="http://www.w3.org/2000/svg">
  <sodipodi:namedview
     id="namedview7"
     pagecolor="#505050"
     bordercolor="#ffffff"
     borderopacity="1"
     inkscape:showpageshadow="0"
     inkscape:pageopacity="0"
     inkscape:pagecheckerboard="1"
     inkscape:deskcolor="#505050"
     inkscape:document-units="mm"
     showgrid="false"
     inkscape:zoom="1.8707912"
     inkscape:cx="45.168054"
     inkscape:cy="23.51946"
     inkscape:window-width="1366"
     inkscape:window-height="705"
     inkscape:window-x="-8"
     inkscape:window-y="-8"
     inkscape:window-maximized="1"
     inkscape:current-layer="layer1" />
  <defs
     id="defs2" />
  <g
     inkscape:label="Camada 1"
     inkscape:groupmode="layer"
     id="layer1">
    <rect
       style="fill:#d4aa00;stroke-width:0.499999"
       id="rect1465"
       width="25.4"
       height="25.4"
       x="0"
       y="0" />
    <g
       aria-label="Js"
       id="text1625"
       style="font-weight:bold;font-size:12.9985px;font-family:Poppins;-inkscape-font-specification:'Poppins Bold';stroke-width:0.5">
      <path
         d="m 15.517754,13.490894 v 6.213283 q 0,1.442833 -0.818906,2.222743 -0.805907,0.77991 -2.183748,0.77991 -1.442833,0 -2.313733,-0.818905 -0.870899,-0.818906 -0.870899,-2.326732 h 2.209745 q 0,0.571934 0.233973,0.8709 0.233973,0.285967 0.675922,0.285967 0.402953,0 0.623928,-0.25997 0.220974,-0.25997 0.220974,-0.753913 v -6.213283 z"
         id="path2407" />
      <path
         d="m 20.262195,22.719829 q -0.94889,0 -1.689805,-0.324963 -0.740914,-0.324962 -1.169865,-0.883898 -0.42895,-0.571934 -0.480944,-1.273853 h 2.196746 q 0.039,0.376957 0.35096,0.61093 0.311964,0.233973 0.766911,0.233973 0.415952,0 0.636927,-0.155982 0.233973,-0.168981 0.233973,-0.428951 0,-0.311964 -0.324963,-0.454947 -0.324962,-0.155982 -1.052878,-0.337961 -0.77991,-0.181979 -1.29985,-0.376957 -0.51994,-0.207976 -0.896897,-0.636926 -0.376956,-0.441949 -0.376956,-1.182864 0,-0.623928 0.337961,-1.130869 0.350959,-0.51994 1.013883,-0.818906 0.675922,-0.298965 1.598815,-0.298965 1.364843,0 2.144753,0.675922 0.792908,0.675922 0.909895,1.793793 h -2.053763 q -0.05199,-0.376957 -0.337961,-0.597931 -0.272969,-0.220975 -0.727916,-0.220975 -0.389955,0 -0.597931,0.155982 -0.207976,0.142984 -0.207976,0.402954 0,0.311964 0.324962,0.467946 0.337961,0.155982 1.03988,0.311964 0.805907,0.207976 1.312849,0.415952 0.506941,0.194977 0.883898,0.649925 0.389955,0.441949 0.402953,1.195862 0,0.636926 -0.363958,1.143868 -0.350959,0.493943 -1.026881,0.77991 -0.662924,0.285967 -1.546822,0.285967 z"
         id="path2409" />
    </g>
  </g>
</svg>
